<svg width="36" height="36" viewBox="0 0 36 36" fill="currentColor" xmlns="http://www.w3.org/2000/svg">
  <path fill-rule="evenodd" clip-rule="evenodd" d="M30.9167 16.8255L8.14429 16.8255L12.7201 12.2497C13.166 11.8038 13.166 11.1179 12.7201 10.672C12.4955 10.4474 12.1729 10.3376 11.9312 10.3376C11.6895 10.3376 11.3669 10.4474 11.1424 10.672L4.65443 17.1599C4.20852 17.6058 4.20852 18.2917 4.65443 18.7376L11.1424 25.2256C11.5883 25.6715 12.2742 25.6715 12.7201 25.2256C13.166 24.7797 13.166 24.0938 12.7201 23.6479L8.14429 19.0721L30.9167 19.0721C31.2275 19.0721 31.5145 18.9669 31.7247 18.7567C31.9348 18.5465 32.04 18.2596 32.04 17.9488C32.04 17.638 31.9348 17.351 31.7247 17.1408C31.5145 16.9307 31.2275 16.8255 30.9167 16.8255Z" fill="currentColor"/>
</svg>
