<svg width="36" height="36" viewBox="0 0 36 36" fill="currentColor" xmlns="http://www.w3.org/2000/svg">
  <path fill-rule="evenodd" clip-rule="evenodd" d="M19.971 17.7722L25.5268 23.4272C25.9697 23.878 25.9697 24.5685 25.5268 25.0193C25.0805 25.4736 24.3912 25.4736 23.9449 25.0193L18.761 19.7428L18.2495 19.2634L17.738 19.7428L12.554 25.0193C12.1077 25.4736 11.4184 25.4736 10.9721 25.0193C10.7484 24.7916 10.64 24.4657 10.64 24.2232C10.64 23.9808 10.7484 23.6549 10.9721 23.4272L16.5279 17.7722L10.9721 12.1171C10.7484 11.8894 10.64 11.5636 10.64 11.3211C10.64 11.0787 10.7484 10.7528 10.9721 10.5251C11.4184 10.0708 12.1077 10.0708 12.554 10.5251L17.738 15.8016L18.2495 16.281L18.761 15.8016L23.9449 10.5251C24.3912 10.0708 25.0805 10.0708 25.5268 10.5251C25.9697 10.9759 25.9697 11.6664 25.5268 12.1171L19.971 17.7722Z" fill="currentColor"/>
</svg>
