<svg width="25" height="24" viewBox="0 0 25 24" fill="none" xmlns="http://www.w3.org/2000/svg">
<circle cx="12.38" cy="12.1191" r="9" transform="rotate(90 12.38 12.1191)" fill="currentColor"/>
<path d="M12.9563 7.91853L12.9609 7.99139L12.9608 11.4766L16.4461 11.4766C16.7669 11.4766 17.0269 11.7366 17.0269 12.0574C17.0269 12.3536 16.8053 12.5979 16.5189 12.6338L16.4461 12.6383L12.9608 12.6382L12.9609 16.1235C12.9609 16.4443 12.7008 16.7044 12.38 16.7044C12.0839 16.7044 11.8395 16.4828 11.8037 16.1964L11.7991 16.1235L11.7992 12.6382L8.31395 12.6383C7.99315 12.6383 7.73308 12.3782 7.73308 12.0574C7.73308 11.7613 7.95468 11.5169 8.24109 11.4811L8.31395 11.4766L11.7992 11.4766L11.7991 7.99139C11.7991 7.67059 12.0592 7.41052 12.38 7.41052C12.6761 7.41052 12.9205 7.63212 12.9563 7.91853Z" fill="white"/>
</svg>
